<svg version="1.1" id="brand-skill" xmlns="http://www.w3.org/2000/svg" xmlns:xlink="http://www.w3.org/1999/xlink" x="0px" y="0px" width="160px" height="108px" viewBox="0 0 160 108" enable-background="new 0 0 160 108" xml:space="preserve"><g id="heart"><path fill="#FFFFFF" d="M23.6,101.8c-20-11.5-19-24-19-24c0-7.3,5.9-13.2,13.2-13.2c4,0,7.5,1.8,10,4.5c2.4-2.8,6-4.5,10-4.5
                				c7.3,0,13.2,5.9,13.2,13.2c0,0,1,12.6-19,24h40.2"></path><path id="heartpath" fill="none" stroke="#103e47" stroke-width="2.979" stroke-linecap="round" stroke-linejoin="round" stroke-miterlimit="10" stroke-dasharray="0, 1000" d="
                				M23.6,101.8c-20-11.5-19-24-19-24c0-7.3,5.9-13.2,13.2-13.2c4,0,7.5,1.8,10,4.5c2.4-2.8,6-4.5,10-4.5c7.3,0,13.2,5.9,13.2,13.2
                				c0,0,1,12.6-19,24h40.2" style="stroke-dasharray: 0px, 168.126174926758px;"></path></g><g id="pen" style="transform-origin: 23px 100px 0px; transform: matrix(1, 0, 0, 1, 0, 0);"><polygon fill="#FFFFFF" points="41.2,87.1 23.8,101.8 6.4,87.1 6.4,28.9 17.4,24.5 29,24.5 41.2,28.9 	"></polygon><polygon fill="none" stroke="#103e47" stroke-width="2.979" stroke-linecap="round" stroke-linejoin="round" stroke-miterlimit="10" points="
                				41.2,87.1 23.8,101.8 6.4,87.1 6.4,28.9 17.4,24.5 29,24.5 41.2,28.9 	"></polygon><polyline fill="#FFFFFF" points="6.4,87.1 16.8,81.5 30.3,81.5 41.2,87.1 	"></polyline><polyline fill="none" stroke="#103e47" stroke-width="2.979" stroke-linecap="round" stroke-linejoin="round" stroke-miterlimit="10" points="
                				6.4,87.1 16.8,81.5 30.3,81.5 41.2,87.1 	"></polyline><line fill="#FFFFFF" x1="17.4" y1="24.5" x2="17.4" y2="81.5"></line><line fill="none" stroke="#103e47" stroke-width="2.979" stroke-linecap="round" stroke-linejoin="round" stroke-miterlimit="10" x1="17.4" y1="24.5" x2="17.4" y2="81.5"></line><line fill="#FFFFFF" x1="29" y1="24.5" x2="29" y2="81.5"></line><line fill="none" stroke="#103e47" stroke-width="2.979" stroke-linecap="round" stroke-linejoin="round" stroke-miterlimit="10" x1="29" y1="24.5" x2="29" y2="81.5"></line><path fill="#FFFFFF" d="M30.3,96.3c-1.5-1.8-3.9-3-6.4-3c-2.6,0-4.9,1.2-6.4,3l6.4,5.4L30.3,96.3z"></path><path fill="none" stroke="#103e47" stroke-width="2.979" stroke-linecap="round" stroke-linejoin="round" stroke-miterlimit="10" d="
                				M30.3,96.3c-1.5-1.8-3.9-3-6.4-3c-2.6,0-4.9,1.2-6.4,3l6.4,5.4L30.3,96.3z"></path></g></svg>
